<?xml version="1.0" standalone="no"?>
<!DOCTYPE svg PUBLIC "-//W3C//DTD SVG 20010904//EN"
 "http://www.w3.org/TR/2001/REC-SVG-20010904/DTD/svg10.dtd">
<svg version="1.0" xmlns="http://www.w3.org/2000/svg"
 width="1280.000000pt" height="1280.000000pt" viewBox="0 0 1280.000000 1280.000000"
 preserveAspectRatio="xMidYMid meet">
<metadata>
Created by potrace 1.14, written by Peter Selinger 2001-2017
</metadata>
<g transform="translate(0.000000,1280.000000) scale(0.100000,-0.100000)"
fill="#000000" stroke="none">
<path d="M2800 10800 l0 -400 100 0 100 0 0 -100 0 -100 100 0 100 0 0 -100 0
-100 100 0 100 0 0 -200 0 -200 100 0 100 0 0 -400 0 -400 -200 0 -200 0 0
-300 0 -300 100 0 100 0 0 -200 0 -200 100 0 100 0 0 -1000 0 -1000 100 0 100
0 0 -100 0 -100 100 0 100 0 0 -100 0 -100 -500 0 -500 0 0 -100 0 -100 -100
0 -100 0 0 -300 0 -300 100 0 100 0 0 -100 0 -100 100 0 100 0 0 -200 0 -200
-200 0 -200 0 0 -100 0 -100 -100 0 -100 0 0 -100 0 -100 -100 0 -100 0 0
-100 0 -100 -100 0 -100 0 0 -100 0 -100 -100 0 -100 0 0 -100 0 -100 -100 0
-100 0 0 -100 0 -100 -100 0 -100 0 0 -100 0 -100 -100 0 -100 0 0 -100 0
-100 -100 0 -100 0 0 -100 0 -100 -100 0 -100 0 0 -200 0 -200 -100 0 -100 0
0 -100 0 -100 -100 0 -100 0 0 -800 0 -800 100 0 100 0 0 700 0 700 100 0 100
0 0 100 0 100 100 0 100 0 0 200 0 200 100 0 100 0 0 100 0 100 100 0 100 0 0
100 0 100 100 0 100 0 0 100 0 100 100 0 100 0 0 100 0 100 100 0 100 0 0 100
0 100 100 0 100 0 0 100 0 100 100 0 100 0 0 100 0 100 100 0 100 0 0 100 0
100 100 0 100 0 0 100 0 100 200 0 200 0 0 100 0 100 200 0 200 0 0 -700 0
-700 -100 0 -100 0 0 -200 0 -200 200 0 200 0 0 1000 0 1000 300 0 300 0 0
-100 0 -100 200 0 200 0 0 -100 0 -100 200 0 200 0 0 -100 0 -100 400 0 400 0
0 100 0 100 500 0 500 0 0 100 0 100 200 0 200 0 0 100 0 100 400 0 400 0 0
-1000 0 -1000 200 0 200 0 0 200 0 200 -100 0 -100 0 0 800 0 800 100 0 100 0
0 -100 0 -100 200 0 200 0 0 -100 0 -100 100 0 100 0 0 -100 0 -100 200 0 200
0 0 -100 0 -100 100 0 100 0 0 -100 0 -100 100 0 100 0 0 -100 0 -100 100 0
100 0 0 -100 0 -100 100 0 100 0 0 -100 0 -100 100 0 100 0 0 -200 0 -200 100
0 100 0 0 -200 0 -200 100 0 100 0 0 -300 0 -300 100 0 100 0 0 -600 0 -600
100 0 100 0 0 700 0 700 -100 0 -100 0 0 300 0 300 -100 0 -100 0 0 200 0 200
-100 0 -100 0 0 100 0 100 -100 0 -100 0 0 200 0 200 -100 0 -100 0 0 100 0
100 -100 0 -100 0 0 100 0 100 -100 0 -100 0 0 100 0 100 -100 0 -100 0 0 100
0 100 -200 0 -200 0 0 100 0 100 -100 0 -100 0 0 100 0 100 100 0 100 0 0 100
0 100 100 0 100 0 0 500 0 500 -800 0 -800 0 0 100 0 100 100 0 100 0 0 100 0
100 200 0 200 0 0 200 0 200 100 0 100 0 0 100 0 100 200 0 200 0 0 600 0 600
100 0 100 0 0 200 0 200 100 0 100 0 0 300 0 300 -200 0 -200 0 0 800 0 800
-100 0 -100 0 0 200 0 200 -100 0 -100 0 0 100 0 100 -100 0 -100 0 0 100 0
100 -100 0 -100 0 0 100 0 100 -200 0 -200 0 0 -100 0 -100 -100 0 -100 0 0
-100 0 -100 -100 0 -100 0 0 100 0 100 -200 0 -200 0 0 100 0 100 -300 0 -300
0 0 -100 0 -100 -500 0 -500 0 0 100 0 100 -300 0 -300 0 0 -100 0 -100 -200
0 -200 0 0 -100 0 -100 -100 0 -100 0 0 100 0 100 -200 0 -200 0 0 100 0 100
-300 0 -300 0 0 -100 0 -100 -200 0 -200 0 0 100 0 100 -200 0 -200 0 0 -400z
m1400 -1300 l0 -100 700 0 700 0 0 100 0 100 400 0 400 0 0 -100 0 -100 1100
0 1100 0 0 100 0 100 100 0 100 0 0 -300 0 -300 100 0 100 0 0 -300 0 -300
-1100 0 -1100 0 0 -100 0 -100 -500 0 -500 0 0 100 0 100 -900 0 -900 0 0 600
0 600 100 0 100 0 0 -100z m-600 -1000 l0 -100 -100 0 -100 0 0 100 0 100 100
0 100 0 0 -100z m6000 -200 l0 -100 -100 0 -100 0 0 100 0 100 100 0 100 0 0
-100z m-5200 -600 l0 -500 700 0 700 0 0 400 0 400 500 0 500 0 0 -400 0 -400
700 0 700 0 0 500 0 500 400 0 400 0 0 -600 0 -600 -100 0 -100 0 0 -100 0
-100 -100 0 -100 0 0 -100 0 -100 -300 0 -300 0 0 -100 0 -100 -500 0 -500 0
0 200 0 200 -100 0 -100 0 0 100 0 100 -1000 0 -1000 0 0 -100 0 -100 -100 0
-100 0 0 -200 0 -200 -200 0 -200 0 0 100 0 100 -100 0 -100 0 0 800 0 800
200 0 200 0 0 -500z m600 300 l0 -200 200 0 200 0 0 200 0 200 100 0 100 0 0
-400 0 -400 -500 0 -500 0 0 400 0 400 200 0 200 0 0 -200z m2400 0 l0 -200
200 0 200 0 0 200 0 200 100 0 100 0 0 -400 0 -400 -500 0 -500 0 0 400 0 400
200 0 200 0 0 -200z m-800 -1500 l0 -100 100 0 100 0 0 -100 0 -100 100 0 100
0 0 -200 0 -200 -300 0 -300 0 0 -100 0 -100 -500 0 -500 0 0 100 0 100 -100
0 -100 0 0 100 0 100 -200 0 -200 0 0 200 0 200 100 0 100 0 0 100 0 100 800
0 800 0 0 -100z m-2200 -1400 l0 -100 -500 0 -500 0 0 -100 0 -100 100 0 100
0 0 -100 0 -100 500 0 500 0 0 -100 0 -100 -600 0 -600 0 0 100 0 100 -200 0
-200 0 0 300 0 300 700 0 700 0 0 -100z m5000 0 l0 -100 100 0 100 0 0 -200 0
-200 -100 0 -100 0 0 -100 0 -100 -900 0 -900 0 0 100 0 100 900 0 900 0 0
200 0 200 -800 0 -800 0 0 100 0 100 800 0 800 0 0 -100z m-2200 -200 l0 -100
100 0 100 0 0 -300 0 -300 -200 0 -200 0 0 -100 0 -100 -500 0 -500 0 0 -100
0 -100 -200 0 -200 0 0 100 0 100 -200 0 -200 0 0 100 0 100 -100 0 -100 0 0
300 0 300 900 0 900 0 0 100 0 100 200 0 200 0 0 -100z"/>
<path d="M4400 8800 l0 -200 700 0 700 0 0 100 0 100 100 0 100 0 0 100 0 100
-100 0 -100 0 0 -100 0 -100 -600 0 -600 0 0 100 0 100 -100 0 -100 0 0 -200z"/>
<path d="M6800 8800 l0 -200 700 0 700 0 0 100 0 100 100 0 100 0 0 100 0 100
-100 0 -100 0 0 -100 0 -100 -600 0 -600 0 0 100 0 100 -100 0 -100 0 0 -200z"/>
<path d="M5200 6300 l0 -100 100 0 100 0 0 -100 0 -100 500 0 500 0 0 100 0
100 100 0 100 0 0 100 0 100 -100 0 -100 0 0 -100 0 -100 -500 0 -500 0 0 100
0 100 -100 0 -100 0 0 -100z"/>
<path d="M5200 1700 l0 -500 100 0 100 0 0 200 0 200 300 0 300 0 0 300 0 300
-400 0 -400 0 0 -500z m600 200 l0 -100 -200 0 -200 0 0 100 0 100 200 0 200
0 0 -100z"/>
<path d="M6400 1700 l0 -500 400 0 400 0 0 500 0 500 -400 0 -400 0 0 -500z
m600 200 l0 -100 -200 0 -200 0 0 100 0 100 200 0 200 0 0 -100z m0 -400 l0
-100 -200 0 -200 0 0 100 0 100 200 0 200 0 0 -100z"/>
<path d="M2400 1000 l0 -200 -100 0 -100 0 0 -400 0 -400 100 0 100 0 0 300 0
300 100 0 100 0 0 300 0 300 -100 0 -100 0 0 -200z"/>
<path d="M9600 1000 l0 -200 100 0 100 0 0 -400 0 -400 100 0 100 0 0 500 0
500 -100 0 -100 0 0 100 0 100 -100 0 -100 0 0 -200z"/>
</g>
</svg>
