<?xml version="1.0" standalone="no"?>
<!DOCTYPE svg PUBLIC "-//W3C//DTD SVG 20010904//EN"
 "http://www.w3.org/TR/2001/REC-SVG-20010904/DTD/svg10.dtd">
<svg version="1.0" xmlns="http://www.w3.org/2000/svg"
 width="700.000000pt" height="700.000000pt" viewBox="0 0 700.000000 700.000000"
 preserveAspectRatio="xMidYMid meet">
<metadata>
Created by potrace 1.14, written by Peter Selinger 2001-2017
</metadata>
<g transform="translate(0.000000,700.000000) scale(0.100000,-0.100000)"
fill="#000000" stroke="none">
<path d="M3350 5574 c-372 -47 -725 -218 -1026 -497 l-71 -66 -24 25 c-47 51
-219 183 -301 232 -159 94 -267 126 -397 120 -79 -4 -96 -8 -171 -46 -172 -88
-385 -253 -609 -475 -359 -356 -561 -696 -578 -974 -11 -178 34 -300 155 -421
71 -72 73 -76 89 -150 36 -176 101 -319 187 -411 46 -48 128 -101 156 -101 6
0 51 -36 99 -81 181 -166 390 -302 530 -343 70 -21 174 -20 235 0 26 9 48 15
50 13 1 -2 17 -35 34 -72 56 -121 139 -237 246 -342 150 -149 281 -229 499
-304 237 -82 439 -110 829 -118 542 -11 983 37 1309 143 134 43 318 135 410
204 141 106 272 262 344 410 l27 55 78 -3 c66 -3 92 1 165 26 141 49 332 175
493 327 58 54 94 80 137 96 141 53 264 254 316 518 12 61 16 68 79 128 113
106 162 223 161 385 -1 269 -167 580 -497 935 -234 252 -613 542 -768 588 -64
19 -176 19 -251 0 -124 -32 -301 -133 -448 -257 -38 -32 -72 -58 -76 -58 -4 0
-38 28 -76 62 -248 219 -526 361 -842 428 -73 16 -144 22 -278 25 -99 2 -196
1 -215 -1z m355 -155 c340 -41 663 -197 943 -454 51 -47 101 -85 112 -85 10 0
53 30 95 68 273 240 502 334 669 272 129 -49 362 -220 569 -420 386 -372 601
-729 585 -975 -8 -117 -53 -193 -176 -295 -41 -34 -42 -37 -65 -155 -27 -136
-72 -253 -123 -319 -40 -53 -75 -79 -129 -96 -26 -8 -80 -49 -152 -113 -290
-259 -516 -368 -651 -312 -63 27 -76 17 -132 -101 -235 -498 -708 -694 -1745
-721 -974 -24 -1500 210 -1720 767 -21 52 -42 101 -47 108 -17 20 -63 14 -87
-12 -52 -55 -127 -69 -228 -42 -122 33 -332 170 -497 327 -62 58 -97 83 -140
100 -134 50 -208 191 -272 517 -3 12 -17 33 -31 45 -91 75 -133 122 -159 180
-108 237 81 626 515 1057 209 208 461 399 600 456 172 71 405 -25 708 -295 55
-49 100 -81 114 -81 14 0 58 35 123 98 109 104 211 185 318 250 311 190 667
272 1003 231z"/>
<path d="M1931 4755 c-82 -23 -256 -118 -390 -214 -354 -253 -585 -534 -598
-728 -8 -101 8 -145 75 -212 31 -32 67 -64 80 -72 16 -10 27 -32 38 -78 32
-138 114 -262 196 -295 68 -28 101 -47 195 -114 l88 -63 6 228 c9 308 39 511
116 763 69 231 179 466 308 661 41 62 72 116 67 120 -16 17 -128 18 -181 4z"/>
<path d="M5001 4759 c-30 -5 -56 -11 -59 -13 -2 -3 23 -44 56 -93 177 -263
303 -559 372 -878 49 -223 63 -350 64 -592 1 -123 4 -223 7 -223 8 0 175 115
211 145 16 13 46 29 66 35 110 30 194 141 238 315 14 55 22 68 50 85 48 30
121 115 135 157 7 21 10 66 7 108 -9 136 -98 286 -278 465 -255 256 -596 476
-765 493 -27 3 -74 1 -104 -4z"/>
<path d="M4330 3538 c-159 -28 -261 -247 -204 -438 62 -210 273 -285 414 -148
132 127 139 370 14 507 -61 68 -136 95 -224 79z m203 -199 c31 -23 51 -88 42
-129 -8 -38 -41 -79 -72 -91 -38 -14 -91 13 -108 55 -49 117 50 235 138 165z"/>
<path d="M2583 3439 c-259 -128 -202 -603 76 -636 102 -12 204 55 257 170 26
55 29 73 29 162 0 81 -5 109 -22 147 -53 116 -135 178 -238 178 -41 0 -73 -7
-102 -21z m288 -187 c63 -56 47 -177 -26 -208 -84 -35 -157 65 -120 163 30 77
90 95 146 45z"/>
<path d="M3453 3136 c-236 -58 -408 -413 -372 -767 24 -243 135 -357 366 -378
285 -25 445 57 511 260 27 84 23 346 -6 454 -65 234 -190 389 -350 430 -66 17
-80 18 -149 1z"/>
<path d="M3030 2102 c-52 -52 -58 -133 -15 -198 22 -34 99 -70 191 -89 169
-35 529 -35 648 -1 122 36 186 109 186 213 0 120 -106 144 -119 27 -7 -59 -38
-84 -133 -105 -117 -26 -484 -13 -608 21 -56 16 -63 23 -49 53 21 45 -9 107
-52 107 -12 0 -33 -13 -49 -28z"/>
</g>
</svg>
